<?xml version="1.0" standalone="no"?>
<!DOCTYPE svg PUBLIC "-//W3C//DTD SVG 20010904//EN"
 "http://www.w3.org/TR/2001/REC-SVG-20010904/DTD/svg10.dtd">
<svg version="1.0" xmlns="http://www.w3.org/2000/svg"
 width="913.000000pt" height="913.000000pt" viewBox="0 0 913.000000 913.000000"
 preserveAspectRatio="xMidYMid meet">
<metadata>
Created by potrace 1.11, written by Peter Selinger 2001-2013
</metadata>
<g transform="translate(0.000000,913.000000) scale(0.100000,-0.100000)"
fill="#000000" stroke="none">
<path d="M417 7812 l-387 -387 0 -1701 0 -1700 389 -382 389 -382 606 0 606 0
0 -1160 0 -1160 510 0 510 0 0 475 0 475 510 0 510 0 0 -475 0 -475 510 0 510
0 0 475 0 475 510 0 510 0 0 -475 0 -475 510 0 510 0 0 1160 0 1160 613 0 612
0 383 383 382 382 0 1700 0 1700 -387 387 -388 388 -3765 0 -3765 0 -388 -388z
m482 -231 c73 -38 121 -115 121 -197 0 -48 -50 -135 -96 -167 -61 -43 -137
-48 -207 -13 -77 37 -110 88 -115 176 -3 53 0 75 17 108 21 42 67 83 111 101
43 17 128 13 169 -8z m7519 4 c155 -65 171 -286 26 -371 -67 -39 -129 -43
-198 -11 -62 29 -110 90 -121 156 -14 82 36 180 113 221 46 24 129 26 180 5z
m-5480 -466 c188 -20 328 -62 497 -147 377 -192 647 -545 736 -964 32 -148 32
-410 1 -555 -68 -315 -231 -594 -460 -785 -211 -177 -444 -284 -707 -324 -132
-21 -384 -13 -505 15 -547 126 -960 544 -1077 1091 -26 120 -25 439 0 558 53
239 164 461 325 646 290 333 750 513 1190 465z m3660 -15 c532 -92 972 -509
1109 -1048 35 -139 44 -405 18 -558 -98 -599 -586 -1073 -1189 -1157 -108 -15
-293 -14 -406 4 -283 43 -545 173 -753 375 -214 206 -344 439 -404 720 -35
160 -36 407 -5 557 60 282 188 519 387 718 328 328 781 470 1243 389z m-5688
-2855 c113 -64 139 -218 55 -317 -44 -51 -90 -72 -158 -72 -70 0 -96 10 -147
56 -118 107 -70 304 88 355 41 13 118 3 162 -22z m3723 20 c22 -6 54 -25 73
-42 49 -47 714 -1205 721 -1256 12 -89 -30 -165 -112 -202 -37 -17 -85 -19
-739 -19 -695 0 -700 0 -744 21 -29 15 -54 37 -74 68 -26 41 -29 52 -25 111 3
65 5 67 342 650 185 322 352 600 370 618 31 33 91 61 130 62 11 0 37 -5 58
-11z m3813 -24 c112 -66 134 -219 46 -317 -46 -51 -85 -68 -157 -68 -121 0
-205 85 -205 206 0 66 18 108 64 153 68 66 167 76 252 26z"/>
</g>
</svg>
