<?xml version="1.0" standalone="no"?>
<!DOCTYPE svg PUBLIC "-//W3C//DTD SVG 20010904//EN"
 "http://www.w3.org/TR/2001/REC-SVG-20010904/DTD/svg10.dtd">
<svg version="1.0" xmlns="http://www.w3.org/2000/svg"
 width="600.000000pt" height="600.000000pt" viewBox="0 0 600.000000 600.000000"
 preserveAspectRatio="xMidYMid meet">
<metadata>
Created by potrace 1.11, written by Peter Selinger 2001-2013
</metadata>
<g transform="translate(0.000000,600.000000) scale(0.100000,-0.100000)"
fill="#000000" stroke="none">
<path d="M2848 4695 c-2 -2 -43 -6 -93 -10 -49 -4 -92 -8 -95 -10 -3 -1 -27
-6 -55 -9 -89 -12 -276 -57 -364 -88 -113 -39 -172 -69 -446 -228 -126 -73
-367 -211 -535 -308 -168 -97 -320 -184 -338 -193 -18 -10 -38 -22 -45 -27 -7
-5 -43 -26 -82 -47 -38 -21 -74 -41 -80 -45 -8 -6 -251 -147 -385 -222 -190
-108 -239 -149 -278 -231 -39 -84 -52 -161 -48 -297 5 -152 9 -179 47 -255 50
-103 74 -122 329 -268 102 -58 286 -163 410 -235 124 -71 317 -182 430 -247
113 -65 264 -151 335 -193 72 -41 145 -83 164 -94 18 -10 111 -63 205 -117
190 -109 302 -158 451 -195 305 -77 626 -98 925 -61 231 29 485 97 615 167 38
20 490 278 825 471 85 49 171 98 190 109 19 11 107 62 195 113 88 51 284 163
435 250 151 86 290 171 309 189 87 81 123 182 126 356 3 139 -10 220 -48 304
-48 104 -8 78 -962 626 -198 114 -448 258 -555 320 -228 132 -252 145 -305
175 -22 13 -85 48 -139 79 -190 108 -385 164 -731 212 -50 6 -401 15 -407 9z
m318 -349 c151 -21 314 -70 434 -132 78 -40 139 -75 160 -91 8 -7 42 -32 75
-57 138 -102 288 -284 372 -451 39 -77 98 -226 108 -275 2 -8 8 -37 15 -65 19
-82 25 -162 24 -305 -6 -660 -506 -1224 -1169 -1318 -97 -14 -355 -7 -445 12
-479 99 -869 438 -1025 891 -15 44 -28 85 -29 90 -2 6 -8 35 -14 65 -6 30 -14
69 -18 85 -13 65 -12 312 2 405 13 86 51 234 74 285 93 216 200 373 348 510
205 189 509 329 767 351 39 4 71 7 72 9 6 4 203 -3 249 -9z m-2619 -1131 c97
-29 164 -124 159 -225 -3 -68 -27 -120 -74 -161 -48 -43 -91 -59 -154 -59
-188 1 -294 215 -182 367 38 51 111 89 180 92 11 1 43 -6 71 -14z m5040 0 c55
-16 112 -65 140 -119 25 -47 26 -143 2 -191 -42 -86 -119 -135 -210 -135 -69
0 -124 25 -171 78 -128 142 -27 371 168 381 11 1 43 -6 71 -14z"/>
</g>
</svg>
