<?xml version="1.0" encoding="UTF-8"?>
<!DOCTYPE svg PUBLIC "-//W3C//DTD SVG 1.1//EN" "http://www.w3.org/Graphics/SVG/1.1/DTD/svg11.dtd">
<!-- Creator: CorelDRAW -->
<svg xmlns="http://www.w3.org/2000/svg" xml:space="preserve" width="5.98425in" height="0.590551in" style="shape-rendering:geometricPrecision; text-rendering:geometricPrecision; image-rendering:optimizeQuality; fill-rule:evenodd; clip-rule:evenodd"
viewBox="0 0 5.98425 0.590551">
 <defs>
  <style type="text/css">
   <![CDATA[
    .fil0 {fill:white}
   ]]>
  </style>
 </defs>
 <g id="Layer_x0020_1">
  <metadata id="CorelCorpID_0Corel-Layer"/>
  <g id="_133782560">
   <path id="_133647216" class="fil0" d="M1.13916 0.336134l0 -0.160354 -0.0803504 -0.0813189 -0.243374 0 -0.0803504 0.0813189 0 0.160354 0.404075 0zm-0.404075 0.0804331l0 0.161594 -0.0804291 0 0 -0.444713 0.119622 -0.119417 0.325689 0 0.119626 0.119417 0 0.444713 -0.0804331 0 0 -0.161594 -0.404075 0z"/>
   <polygon id="_133589752" class="fil0" points="0.00946063,0.416035 0.171512,0.577862 0.57398,0.577862 0.57398,0.497433 0.21272,0.497433 0.0898937,0.375213 0.0898937,0.21528 0.21272,0.0930591 0.57398,0.0930591 0.57398,0.012626 0.171512,0.012626 0.00946063,0.174457 "/>
   <path id="_133877768" class="fil0" d="M1.8636 0.337157l-0.0788661 0.0800551 -0.0810039 0.000114173 0.160535 0.160535 -0.0992323 0 -0.160398 -0.160398 -0.223764 0.000314961 0 0.160083 -0.0804331 0 0 -0.562252 0.484406 0 0.0794213 0.0806181c0,0.0805039 -0.000665354,0.159965 -0.000665354,0.240929zm-0.0797638 -0.201661l-0.0406102 -0.0394567 -0.362354 0 0 0.241307 0.361685 0 0.0406102 -0.0394567c0,-0.0545709 0.000669291,-0.108437 0.000669291,-0.162394z"/>
   <path id="_133647056" class="fil0" d="M2.42913 0.335839l0 -0.160358 -0.0803504 -0.081315 -0.243374 0 -0.0803504 0.081315 0 0.160358 0.404075 0zm-0.404075 0.0804331l0 0.161591 -0.0804331 0 0 -0.444709 0.119626 -0.119421 0.325689 0 0.119622 0.119421 0 0.444709 -0.0804291 0 0 -0.161591 -0.404075 0z"/>
   <polygon id="_133647136" class="fil0" points="3.31149,0.577862 3.31149,0.170268 3.71909,0.577862 3.79667,0.577862 3.79667,0.0123898 3.71624,0.0123898 3.71624,0.417134 3.31149,0.0123898 3.23106,0.0123898 3.23106,0.577862 "/>
   <polygon id="_133646976" class="fil0" points="2.81889,0.577862 2.67041,0.245449 2.67041,0.577862 2.58998,0.577862 2.58998,0.0123898 2.67041,0.0123898 2.8703,0.462303 3.07017,0.0123898 3.15061,0.0123898 3.15061,0.577862 3.07017,0.577862 3.07017,0.245449 2.9217,0.577862 "/>
   <path id="_133748880" class="fil0" d="M3.95757 0.497433l0 -0.0801772 0.401059 0 0 -0.0804331 -0.401059 0 0 -0.244004 0.481591 0 0 -0.0804291c-0.187343,0 -0.374681,0 -0.562024,0l0 0.565472c0.187343,0 0.374681,0 0.562024,0l0 -0.0804291 -0.481591 0z"/>
   <polygon id="_135352256" class="fil0" points="5.32822,0.497433 5.28784,0.497433 5.28784,0.0928189 5.32822,0.0928189 5.32822,0.0123898 5.16602,0.0123898 5.16602,0.0928189 5.20741,0.0928189 5.20741,0.497433 5.16602,0.497433 5.16602,0.577862 5.32822,0.577862 "/>
   <polygon id="_133574872" class="fil0" points="5.00502,0.37865 4.96441,0.339197 4.59884,0.339224 4.51942,0.258606 4.51894,0.0962913 4.59836,0.0156732 5.00429,0.0156732 5.08371,0.0962913 5.08305,0.176984 5.00261,0.176984 5.00328,0.135559 4.96267,0.0961063 4.63998,0.0961063 4.59937,0.135559 4.59985,0.219339 4.64046,0.258795 5.00603,0.258764 5.08546,0.339382 5.08546,0.497244 5.00604,0.577862 4.59836,0.577862 4.51894,0.497244 4.5196,0.416551 4.60004,0.416551 4.59937,0.457976 4.63998,0.497433 4.96442,0.497433 5.00503,0.457976 "/>
   <polygon id="_133578896" class="fil0" points="5.89437,0.37865 5.85375,0.339197 5.48818,0.339224 5.40876,0.258606 5.40828,0.0962913 5.4877,0.0156732 5.89363,0.0156732 5.97306,0.0962913 5.97239,0.176984 5.89196,0.176984 5.89262,0.135559 5.85201,0.0961063 5.52932,0.0961063 5.48871,0.135559 5.48919,0.219339 5.5298,0.258795 5.89537,0.258764 5.9748,0.339382 5.9748,0.497244 5.89538,0.577862 5.4877,0.577862 5.40828,0.497244 5.40894,0.416551 5.48937,0.416551 5.48871,0.457976 5.52932,0.497433 5.85376,0.497433 5.89437,0.457976 "/>
  </g>
 </g>
</svg>
