<?xml version="1.0" encoding="UTF-8"?>
<!DOCTYPE svg PUBLIC "-//W3C//DTD SVG 1.1//EN" "http://www.w3.org/Graphics/SVG/1.1/DTD/svg11.dtd">
<!-- Creator: CorelDRAW -->
<svg xmlns="http://www.w3.org/2000/svg" xml:space="preserve" width="7.75591in" height="0.826772in" style="shape-rendering:geometricPrecision; text-rendering:geometricPrecision; image-rendering:optimizeQuality; fill-rule:evenodd; clip-rule:evenodd"
viewBox="0 0 7.75591 0.826772">
 <defs>
  <style type="text/css">
   <![CDATA[
    .fil0 {fill:white}
   ]]>
  </style>
 </defs>
 <g id="Layer_x0020_1">
  <metadata id="CorelCorpID_0Corel-Layer"/>
  <g id="_133694184">
   <path id="_133647216" class="fil0" d="M2.90285 0.440795l0 -0.160354 -0.0803504 -0.0813189 -0.243374 0 -0.0803504 0.0813189 0 0.160354 0.404075 0zm-0.404075 0.0804331l0 0.161594 -0.0804291 0 0 -0.444713 0.119622 -0.119417 0.325689 0 0.119626 0.119417 0 0.444713 -0.0804331 0 0 -0.161594 -0.404075 0z"/>
   <polygon id="_133589752" class="fil0" points="1.77315,0.520697 1.9352,0.682524 2.33767,0.682524 2.33767,0.602094 1.97641,0.602094 1.85359,0.479874 1.85359,0.319941 1.97641,0.19772 2.33767,0.19772 2.33767,0.117287 1.9352,0.117287 1.77315,0.279118 "/>
   <path id="_133877768" class="fil0" d="M3.6273 0.441819l-0.0788661 0.0800551 -0.0810039 0.000114173 0.160535 0.160535 -0.0992323 0 -0.160398 -0.160398 -0.223764 0.000314961 0 0.160083 -0.0804331 0 0 -0.562252 0.484406 0 0.0794213 0.0806181c0,0.0805039 -0.000665354,0.159965 -0.000665354,0.240929zm-0.0797638 -0.201661l-0.0406102 -0.0394567 -0.362354 0 0 0.241307 0.361685 0 0.0406102 -0.0394567c0,-0.0545709 0.000669291,-0.108437 0.000669291,-0.162394z"/>
   <path id="_133647056" class="fil0" d="M4.19283 0.4405l0 -0.160358 -0.0803504 -0.081315 -0.243374 0 -0.0803504 0.081315 0 0.160358 0.404075 0zm-0.404075 0.0804331l0 0.161591 -0.0804331 0 0 -0.444709 0.119626 -0.119421 0.325689 0 0.119622 0.119421 0 0.444709 -0.0804291 0 0 -0.161591 -0.404075 0z"/>
   <polygon id="_133647136" class="fil0" points="5.07519,0.682524 5.07519,0.274929 5.48278,0.682524 5.56036,0.682524 5.56036,0.117051 5.47993,0.117051 5.47993,0.521795 5.07519,0.117051 4.99476,0.117051 4.99476,0.682524 "/>
   <polygon id="_133646976" class="fil0" points="4.58259,0.682524 4.43411,0.35011 4.43411,0.682524 4.35368,0.682524 4.35368,0.117051 4.43411,0.117051 4.63399,0.566965 4.83387,0.117051 4.9143,0.117051 4.9143,0.682524 4.83387,0.682524 4.83387,0.35011 4.68539,0.682524 "/>
   <path id="_133748880" class="fil0" d="M5.72126 0.602094l0 -0.0801772 0.401059 0 0 -0.0804331 -0.401059 0 0 -0.244004 0.481591 0 0 -0.0804291c-0.187343,0 -0.374681,0 -0.562024,0l0 0.565472c0.187343,0 0.374681,0 0.562024,0l0 -0.0804291 -0.481591 0z"/>
   <polygon id="_135352256" class="fil0" points="7.09191,0.602094 7.05153,0.602094 7.05153,0.19748 7.09191,0.19748 7.09191,0.117051 6.92971,0.117051 6.92971,0.19748 6.9711,0.19748 6.9711,0.602094 6.92971,0.602094 6.92971,0.682524 7.09191,0.682524 "/>
   <path id="_133670832" class="fil0" d="M0.132409 0.357689c0.030748,0 0.0557008,0.0249331 0.0557008,0.0556969 0,0.0307638 -0.0249528,0.0556969 -0.0557008,0.0556969 -0.0307638,0 -0.0556969,-0.0249331 -0.0556969,-0.0556969 0,-0.0307638 0.0249331,-0.0556969 0.0556969,-0.0556969zm1.21074 0c0.030748,0 0.0557008,0.0249331 0.0557008,0.0556969 0,0.0307638 -0.0249528,0.0556969 -0.0557008,0.0556969 -0.0307638,0 -0.0556969,-0.0249331 -0.0556969,-0.0556969 0,-0.0307638 0.0249331,-0.0556969 0.0556969,-0.0556969zm-0.60537 -0.271067c0.180437,0 0.326768,0.146327 0.326768,0.326764 0,0.180437 -0.146331,0.326764 -0.326768,0.326764 -0.180437,0 -0.326764,-0.146327 -0.326764,-0.326764 0,-0.180437 0.146327,-0.326764 0.326764,-0.326764zm0 0.73522c0.0745866,0 0.172791,-0.0168622 0.230665,-0.0501575l0.442307 -0.254457c0.0395512,-0.022752 0.0473976,-0.0637559 0.0473976,-0.103843 0,-0.0400866 -0.00784646,-0.0810906 -0.0473976,-0.103843l-0.442307 -0.254461c-0.0578701,-0.0332913 -0.156079,-0.0501535 -0.230665,-0.0501535 -0.0745827,0 -0.172791,0.0168622 -0.230661,0.0501535l-0.442307 0.254461c-0.0395512,0.022752 -0.0473976,0.0637559 -0.0473976,0.103843 0,0.0400866 0.00784646,0.0810906 0.0473976,0.103843l0.442307 0.254457c0.0578701,0.0332953 0.156079,0.0501575 0.230661,0.0501575z"/>
   <polygon id="_133574872" class="fil0" points="6.76872,0.483311 6.72811,0.443858 6.36254,0.443886 6.28311,0.363268 6.28263,0.200953 6.36205,0.120335 6.76798,0.120335 6.84741,0.200953 6.84674,0.281646 6.76631,0.281646 6.76698,0.24022 6.72636,0.200768 6.40367,0.200768 6.36306,0.24022 6.36354,0.324 6.40415,0.363457 6.76972,0.363425 6.84915,0.444043 6.84915,0.601906 6.76973,0.682524 6.36205,0.682524 6.28263,0.601906 6.2833,0.521213 6.36373,0.521213 6.36306,0.562638 6.40367,0.602094 6.72811,0.602094 6.76872,0.562638 "/>
   <polygon id="_133578896" class="fil0" points="7.65806,0.483311 7.61744,0.443858 7.25187,0.443886 7.17245,0.363268 7.17197,0.200953 7.25139,0.120335 7.65732,0.120335 7.73675,0.200953 7.73608,0.281646 7.65565,0.281646 7.65631,0.24022 7.6157,0.200768 7.29301,0.200768 7.2524,0.24022 7.25288,0.324 7.29349,0.363457 7.65906,0.363425 7.73849,0.444043 7.73849,0.601906 7.65907,0.682524 7.25139,0.682524 7.17197,0.601906 7.17264,0.521213 7.25307,0.521213 7.2524,0.562638 7.29301,0.602094 7.61745,0.602094 7.65806,0.562638 "/>
  </g>
 </g>
</svg>
