<?xml version="1.0" encoding="UTF-8" standalone="no"?>
<svg
   xmlns:dc="http://purl.org/dc/elements/1.1/"
   xmlns:cc="http://creativecommons.org/ns#"
   xmlns:rdf="http://www.w3.org/1999/02/22-rdf-syntax-ns#"
   xmlns:svg="http://www.w3.org/2000/svg"
   xmlns="http://www.w3.org/2000/svg"
   viewBox="0 0 661.33331 82.666664"
   height="82.666664"
   width="661.33331"
   xml:space="preserve"
   id="svg2"
   version="1.1"><metadata
     id="metadata8"><rdf:RDF><cc:Work
         rdf:about=""><dc:format>image/svg+xml</dc:format><dc:type
           rdf:resource="http://purl.org/dc/dcmitype/StillImage" /></cc:Work></rdf:RDF></metadata><defs
     id="defs6" /><g
     transform="matrix(1.3333333,0,0,-1.3333333,0,82.666667)"
     id="g10"><g
       transform="scale(0.1)"
       id="g12"><path
         id="path14"
         style="fill:#ffffff;fill-opacity:1;fill-rule:evenodd;stroke:none"
         d="m 793.164,552.039 h 119.043 c 73.414,0 133.483,-58.957 133.483,-131.031 V 197.891 c 0,-72.075 -60.069,-131.0355 -133.483,-131.0355 H 793.164 c -73.414,0 -133.476,58.9605 -133.476,131.0355 v 223.117 c 0,72.074 60.062,131.031 133.476,131.031 z m -21.094,62.785 h 161.239 c 99.431,0 180.781,-74.219 180.781,-164.945 V 169.02 C 1114.09,78.293 1032.74,4.07422 933.309,4.07422 H 772.07 C 672.633,4.07422 591.281,78.293 591.281,169.02 v 280.859 c 0,90.726 81.352,164.945 180.789,164.945" /><path
         id="path16"
         style="fill:#ffffff;fill-opacity:1;fill-rule:evenodd;stroke:none"
         d="m 3345.81,267.543 -0.15,-98.523 C 3345.55,78.293 3264.32,4.07422 3164.88,4.07422 h -161.24 c -99.43,0 -180.78,74.21878 -180.78,164.94578 v 280.859 c 0,90.726 81.35,164.945 180.78,164.945 h 161.24 c 99.44,0 180.78,-74.219 180.78,-164.945 l 0.03,-40.82 c 0.01,-8.211 -6.71,-14.938 -14.92,-14.938 h -38.6 c -8.23,0 -14.95,6.727 -14.95,14.938 l 0.04,11.949 c 0.24,72.062 -60.05,131.031 -133.47,131.031 h -119.05 c -73.41,0 -133.47,-58.957 -133.47,-131.031 V 197.891 c 0,-72.075 60.06,-131.0355 133.47,-131.0355 h 119.05 c 73.42,0 134.55,58.9725 133.47,131.0355 l -0.32,21.461 -155.29,0.097 c -7.55,0 -13.73,6.18 -13.73,13.735 v 35.464 c 0,7.559 6.18,13.739 13.73,13.739 l 209.01,0.293 c 8.33,0 15.15,-6.797 15.15,-15.137" /><path
         id="path18"
         style="fill:#ffffff;fill-opacity:1;fill-rule:evenodd;stroke:none"
         d="m 1583.8,614.824 c -143.75,0 -287.51,0 -431.24,0 -8.34,0 -15.15,-6.847 -15.15,-15.136 v -39.133 c 0,-8.282 5.43,-13.75 13.76,-13.75 l 181.43,-0.582 -1.26,-527.0121 c 0,-8.3281 6.8,-15.13668 15.13,-15.13668 h 39.14 c 8.32,0 15.14,6.81638 15.14,15.13668 V 546 l 183.05,-0.578 c 8.33,0 15.14,6.805 15.14,15.133 v 39.133 c 0,8.328 -6.81,15.136 -15.14,15.136" /><path
         id="path20"
         style="fill:#ffffff;fill-opacity:1;fill-rule:evenodd;stroke:none"
         d="M 247.34,320.355 67.1211,609.266 c -2.8281,3.406 -7.0352,5.558 -11.7109,5.558 H 16.2813 c -8.32817,0 -13.74614,-5.422 -13.74614,-13.758 L 1.14063,19.2109 c 0,-8.3281 6.8125,-15.13668 15.14067,-15.13668 h 39.1289 c 8.3281,0 15.1406,6.80858 15.1406,15.13668 L 71.1875,467.383 230.926,212.063 c 1.773,-2.825 5.078,-4.172 8.66,-4.172 h 37.059 c 3.582,0 6.882,1.347 8.656,4.172 l 159.738,255.32 0.629,-448.1721 c 0,-8.3281 6.816,-15.13668 15.148,-15.13668 h 39.125 c 8.332,0 15.145,6.80858 15.145,15.13668 l -1.395,581.8551 c 0,8.336 -5.418,13.758 -13.75,13.758 h -39.125 c -4.683,0 -8.886,-2.152 -11.707,-5.558 L 268.82,320.438 c -5.89,-5.879 -15.586,-5.961 -21.48,-0.083" /><path
         id="path22"
         style="fill:#ffffff;fill-opacity:1;fill-rule:evenodd;stroke:none"
         d="m 2256.01,614.824 c -8.33,0 -13.76,-5.422 -13.76,-13.758 l -1.39,-581.8551 c 0,-8.3281 6.82,-15.13668 15.15,-15.13668 h 39.12 c 8.33,0 15.15,6.80858 15.15,15.13668 l 1.06,197.8201 h 250.46 c 73.4,0 133.47,-58.965 133.47,-131.0388 l -1.01,-66.7813 c 0,-8.3281 6.82,-15.13668 15.14,-15.13668 h 39.13 c 8.33,0 15.15,6.80858 15.15,15.13668 v 95.6521 c 0,54.578 -29.45,103.184 -74.72,133.524 45.11,30.32 74.72,79.047 74.72,133.758 v 67.734 c 0,90.723 -81.36,164.945 -180.79,164.945 z m 55.12,-62.785 -0.04,-272.055 h 250.71 c 73.4,0 133.47,58.969 133.47,131.039 v 9.985 c 0,72.062 -60.07,131.031 -133.47,131.031 h -250.67" /><path
         id="path24"
         style="fill:#ffffff;fill-opacity:1;fill-rule:evenodd;stroke:none"
         d="m 3353.75,19.2109 c 0,-8.3281 6.8,-15.13668 15.13,-15.13668 h 39.13 c 8.32,0 15.14,6.80858 15.14,15.13668 l 77.64,200.4921 h 219.82 l 77.66,-200.4921 c 0,-8.3281 6.82,-15.13668 15.15,-15.13668 h 39.12 c 8.34,0 15.15,6.80858 15.15,15.13668 L 3637.9,610.648 c -1.21,3.11 -5.08,4.176 -8.65,4.176 h -37.06 c -3.58,0 -7.47,-1.066 -8.67,-4.176 z m 172.34,269.6561 73.85,204.946 c 5.89,5.894 15.6,5.82 21.48,-0.071 l 74.19,-205.762 -169.52,0.887" /><path
         id="path26"
         style="fill:#ffffff;fill-opacity:1;fill-rule:evenodd;stroke:none"
         d="m 1839.11,552.039 h 119.05 c 73.41,0 133.47,-58.957 133.47,-131.031 V 197.891 c 0,-72.075 -60.06,-131.0355 -133.47,-131.0355 h -119.05 c -73.41,0 -133.47,58.9605 -133.47,131.0355 v 223.117 c 0,72.074 60.06,131.031 133.47,131.031 z m -21.1,62.785 h 161.25 c 99.43,0 180.78,-74.219 180.78,-164.945 V 169.02 c 0,-90.727 -81.35,-164.94578 -180.78,-164.94578 h -161.25 c -99.43,0 -180.78,74.21878 -180.78,164.94578 v 280.859 c 0,90.726 81.35,164.945 180.78,164.945" /><path
         id="path28"
         style="fill:#ffffff;fill-opacity:1;fill-rule:evenodd;stroke:none"
         d="m 4415.52,267.543 -0.13,-98.523 C 4415.26,78.293 4334.04,4.07422 4234.61,4.07422 h -161.24 c -99.44,0 -180.8,74.21878 -180.8,164.94578 v 280.859 c 0,90.726 81.36,164.945 180.8,164.945 h 161.24 c 99.43,0 180.78,-74.219 180.78,-164.945 l 0.01,-40.82 c 0.02,-8.211 -6.69,-14.938 -14.91,-14.938 h -38.6 c -8.22,0 -14.96,6.727 -14.96,14.938 l 0.05,11.949 c 0.25,72.062 -60.07,131.031 -133.47,131.031 h -119.05 c -73.42,0 -133.48,-58.957 -133.48,-131.031 V 197.891 c 0,-72.075 60.06,-131.0355 133.48,-131.0355 h 119.05 c 73.4,0 134.55,58.9725 133.47,131.0355 l -0.32,21.461 -155.28,0.097 c -7.57,0 -13.74,6.18 -13.74,13.735 v 35.464 c 0,7.559 6.17,13.739 13.74,13.739 l 209,0.293 c 8.33,0 15.14,-6.797 15.14,-15.137" /><path
         id="path30"
         style="fill:#ffffff;fill-opacity:1;fill-rule:evenodd;stroke:none"
         d="m 4437.67,19.2109 c 0,-8.3281 6.81,-15.13668 15.15,-15.13668 h 39.12 c 8.33,0 15.15,6.80858 15.15,15.13668 l 77.62,200.4921 h 219.84 L 4882.2,19.2109 c 0,-8.3281 6.82,-15.13668 15.15,-15.13668 h 39.12 c 8.34,0 15.15,6.80858 15.15,15.13668 L 4721.83,610.648 c -1.2,3.11 -5.08,4.176 -8.66,4.176 h -37.06 c -3.57,0 -7.45,-1.066 -8.66,-4.176 z m 172.35,269.6561 73.86,204.946 c 5.88,5.894 15.58,5.82 21.47,-0.071 l 74.2,-205.762 -169.53,0.887" /></g></g></svg>
