<?xml version="1.0" encoding="UTF-8" standalone="no"?>
<svg
   xmlns:dc="http://purl.org/dc/elements/1.1/"
   xmlns:cc="http://creativecommons.org/ns#"
   xmlns:rdf="http://www.w3.org/1999/02/22-rdf-syntax-ns#"
   xmlns:svg="http://www.w3.org/2000/svg"
   xmlns="http://www.w3.org/2000/svg"
   viewBox="0 0 292 233.33333"
   height="233.33333"
   width="292"
   xml:space="preserve"
   id="svg2"
   version="1.1"><metadata
     id="metadata8"><rdf:RDF><cc:Work
         rdf:about=""><dc:format>image/svg+xml</dc:format><dc:type
           rdf:resource="http://purl.org/dc/dcmitype/StillImage" /></cc:Work></rdf:RDF></metadata><defs
     id="defs6" /><g
     transform="matrix(1.3333333,0,0,-1.3333333,0,233.33333)"
     id="g10"><g
       transform="scale(0.1)"
       id="g12"><path
         id="path14"
         style="fill:#ffffff;fill-opacity:1;fill-rule:evenodd;stroke:none"
         d="m 1057.45,782.484 c 7.94,14.356 23.21,24.079 40.84,24.079 17.61,0 32.92,-9.723 40.88,-24.079 l 157.47,-272.796 c 4.35,-7.028 6.73,-15.325 6.73,-24.161 0,-25.82 -20.89,-46.754 -46.74,-46.754 H 939.938 c -25.86,0 -46.727,20.934 -46.727,46.754 0,8.836 2.359,17.133 6.73,24.161 z m -386.352,34.981 c -185.965,0 -336.676,150.707 -336.676,336.615 0,185.79 150.711,336.55 336.676,336.55 185.855,0 336.632,-150.76 336.632,-336.55 0,-185.908 -150.777,-336.615 -336.632,-336.615 z M 193.09,806.563 c 28.258,0 51.254,-22.973 51.254,-51.375 0,-28.219 -22.996,-51.196 -51.254,-51.196 -28.277,0 -51.332,22.977 -51.332,51.196 0,28.402 23.055,51.375 51.332,51.375 z m 0.558,798.317 c 28.227,0 51.176,-22.95 51.176,-51.17 0,-28.42 -22.949,-51.39 -51.176,-51.39 -28.414,0 -51.359,22.97 -51.359,51.39 0,28.22 22.945,51.17 51.359,51.17 z M 1521.66,817.465 c 185.97,0 336.67,150.707 336.67,336.615 0,185.79 -150.7,336.55 -336.67,336.55 -185.85,0 -336.64,-150.76 -336.64,-336.55 0,-185.908 150.79,-336.615 336.64,-336.615 z m 478.01,-10.902 c -28.26,0 -51.26,-22.973 -51.26,-51.375 0,-28.219 23,-51.196 51.26,-51.196 28.27,0 51.33,22.977 51.33,51.196 0,28.402 -23.06,51.375 -51.33,51.375 z m -0.56,798.317 c -28.23,0 -51.18,-22.95 -51.18,-51.17 0,-28.42 22.95,-51.39 51.18,-51.39 28.41,0 51.35,22.97 51.35,51.39 0,28.22 -22.94,51.17 -51.35,51.17 z m 1.47,-1042.634 184.61,184.426 v 814.978 l -184.08,184.21 H 191.648 L 7.56641,1561.65 V 746.672 L 192.18,562.246 H 484.555 V 5.27344 h 244.73 V 234.488 H 974.012 V 5.27344 H 1218.74 V 234.488 h 244.73 V 5.27344 H 1708.2 V 562.246 h 292.38" /></g></g></svg>
